# Blender 4.3.2
# www.blender.org
mtllib mytorch_torch_wall_out.mtl
o Cylinder
v 0.032225 -0.076320 0.230753
v 0.032225 0.071194 0.146565
v 0.022471 -0.076793 0.229918
v 0.022471 0.070721 0.145729
v 0.013091 -0.078196 0.227442
v 0.013091 0.069318 0.143253
v 0.004447 -0.080473 0.223422
v 0.004447 0.067041 0.139233
v -0.003130 -0.083538 0.218012
v -0.003130 0.063976 0.133823
v -0.009348 -0.087273 0.211419
v -0.009348 0.060241 0.127230
v -0.013969 -0.091534 0.203898
v -0.013969 0.055980 0.119709
v -0.016814 -0.096158 0.195737
v -0.016814 0.051356 0.111548
v -0.017775 -0.100966 0.187250
v -0.017775 0.046548 0.103061
v -0.016814 -0.105774 0.178763
v -0.016814 0.041740 0.094574
v -0.013969 -0.110398 0.170602
v -0.013969 0.037116 0.086413
v -0.009348 -0.114659 0.163081
v -0.009348 0.032855 0.078892
v -0.003130 -0.118394 0.156488
v -0.003130 0.029120 0.072299
v 0.004447 -0.121459 0.151078
v 0.004447 0.026055 0.066889
v 0.013091 -0.123736 0.147058
v 0.013091 0.023778 0.062869
v 0.022471 -0.125139 0.144582
v 0.022471 0.022375 0.060393
v 0.032225 -0.125612 0.143746
v 0.032225 0.021902 0.059558
v 0.041980 -0.125139 0.144582
v 0.041980 0.022375 0.060393
v 0.051360 -0.123736 0.147058
v 0.051360 0.023778 0.062869
v 0.060004 -0.121459 0.151078
v 0.060004 0.026055 0.066889
v 0.067581 -0.118394 0.156488
v 0.067581 0.029120 0.072299
v 0.073799 -0.114659 0.163081
v 0.073799 0.032855 0.078892
v 0.078419 -0.110398 0.170602
v 0.078419 0.037116 0.086413
v 0.081265 -0.105774 0.178763
v 0.081265 0.041740 0.094574
v 0.082225 -0.100966 0.187250
v 0.082225 0.046548 0.103061
v 0.081265 -0.096158 0.195737
v 0.081265 0.051356 0.111548
v 0.078419 -0.091534 0.203898
v 0.078419 0.055980 0.119709
v 0.073799 -0.087273 0.211419
v 0.073799 0.060241 0.127230
v 0.067581 -0.083538 0.218012
v 0.067581 0.063976 0.133823
v 0.060004 -0.080473 0.223422
v 0.060004 0.067041 0.139233
v 0.051360 -0.078196 0.227442
v 0.051360 0.069318 0.143253
v 0.041980 -0.076793 0.229918
v 0.041980 0.070721 0.145729
vn -0.0980 0.4933 0.8643
vn -0.2903 0.4743 0.8311
vn -0.4714 0.4371 0.7660
vn -0.6344 0.3832 0.6714
vn -0.7730 0.3145 0.5510
vn -0.8819 0.2337 0.4094
vn -0.9569 0.1439 0.2521
vn -0.9952 0.0486 0.0851
vn -0.9952 -0.0486 -0.0851
vn -0.9569 -0.1439 -0.2521
vn -0.8819 -0.2337 -0.4094
vn -0.7730 -0.3145 -0.5510
vn -0.6344 -0.3832 -0.6714
vn -0.4714 -0.4371 -0.7660
vn -0.2903 -0.4743 -0.8311
vn -0.0980 -0.4933 -0.8643
vn 0.0980 -0.4933 -0.8643
vn 0.2903 -0.4743 -0.8311
vn 0.4714 -0.4371 -0.7660
vn 0.6344 -0.3832 -0.6714
vn 0.7730 -0.3145 -0.5510
vn 0.8819 -0.2337 -0.4094
vn 0.9569 -0.1439 -0.2521
vn 0.9952 -0.0486 -0.0851
vn 0.9952 0.0486 0.0851
vn 0.9569 0.1439 0.2521
vn 0.8819 0.2337 0.4094
vn 0.7730 0.3145 0.5510
vn 0.6344 0.3832 0.6714
vn 0.4714 0.4371 0.7660
vn -0.0000 0.8701 -0.4929
vn 0.2903 0.4743 0.8311
vn 0.0980 0.4933 0.8643
vn -0.0000 -0.8701 0.4929
vt 0.112985 0.004534
vt 0.113147 0.091938
vt 0.083470 0.092049
vt 0.083308 0.004646
vt 0.055514 0.092268
vt 0.055352 0.004864
vt 0.030356 0.092585
vt 0.030193 0.005181
vt 0.008960 0.092988
vt 0.008797 0.005585
vt 0.789549 0.006778
vt 0.787937 0.092224
vt 0.763337 0.092193
vt 0.764949 0.006747
vt 0.736003 0.092172
vt 0.737615 0.006726
vt 0.706985 0.092162
vt 0.708597 0.006715
vt 0.677399 0.092162
vt 0.679011 0.006715
vt 0.648381 0.092173
vt 0.649993 0.006726
vt 0.621047 0.092194
vt 0.622659 0.006747
vt 0.596447 0.092224
vt 0.598059 0.006778
vt 0.541293 0.003044
vt 0.541135 0.088123
vt 0.520308 0.088516
vt 0.520465 0.003437
vt 0.495818 0.088825
vt 0.495976 0.003746
vt 0.468606 0.089038
vt 0.468764 0.003958
vt 0.439718 0.089146
vt 0.439876 0.004067
vt 0.410264 0.089146
vt 0.410422 0.004067
vt 0.381376 0.089038
vt 0.381534 0.003958
vt 0.354164 0.088825
vt 0.354322 0.003746
vt 0.329674 0.088517
vt 0.329832 0.003437
vt 0.308847 0.088124
vt 0.309005 0.003044
vt 0.990310 0.006405
vt 0.992182 0.091291
vt 0.967742 0.091399
vt 0.965870 0.006513
vt 0.940585 0.091506
vt 0.938714 0.006620
vt 0.911756 0.091608
vt 0.909885 0.006722
vt 0.882362 0.091702
vt 0.880491 0.006816
vt 0.853533 0.091783
vt 0.851661 0.006897
vt 0.826376 0.091848
vt 0.824505 0.006962
vt 0.801936 0.091895
vt 0.800064 0.007009
vt 0.247431 0.005584
vt 0.247593 0.092988
vt 0.226197 0.092585
vt 0.226035 0.005181
vt 0.201038 0.092267
vt 0.200876 0.004864
vt 0.173083 0.092049
vt 0.172920 0.004646
vt 0.538326 0.639571
vt 0.530594 0.631839
vt 0.524520 0.622748
vt 0.520335 0.612646
vt 0.518202 0.601923
vt 0.518202 0.590989
vt 0.520335 0.580265
vt 0.524520 0.570163
vt 0.530594 0.561072
vt 0.538326 0.553341
vt 0.547417 0.547266
vt 0.557519 0.543082
vt 0.568242 0.540949
vt 0.579176 0.540949
vt 0.589900 0.543082
vt 0.600002 0.547266
vt 0.609093 0.553340
vt 0.616824 0.561072
vt 0.622899 0.570163
vt 0.627083 0.580265
vt 0.629216 0.590989
vt 0.629216 0.601923
vt 0.627083 0.612646
vt 0.622899 0.622748
vt 0.616824 0.631839
vt 0.609093 0.639571
vt 0.600002 0.645645
vt 0.589900 0.649829
vt 0.579176 0.651962
vt 0.568242 0.651962
vt 0.557519 0.649829
vt 0.547417 0.645645
vt 0.143406 0.091938
vt 0.143243 0.004534
vt 0.949275 0.363730
vt 0.938551 0.365863
vt 0.927617 0.365863
vt 0.916893 0.363730
vt 0.906792 0.359546
vt 0.897701 0.353471
vt 0.889969 0.345740
vt 0.883895 0.336649
vt 0.879710 0.326547
vt 0.877577 0.315823
vt 0.877577 0.304890
vt 0.879710 0.294166
vt 0.883895 0.284064
vt 0.889969 0.274973
vt 0.897701 0.267241
vt 0.906792 0.261167
vt 0.916893 0.256983
vt 0.927617 0.254849
vt 0.938551 0.254849
vt 0.949275 0.256983
vt 0.959377 0.261167
vt 0.968468 0.267241
vt 0.976199 0.274973
vt 0.982274 0.284064
vt 0.986458 0.294166
vt 0.988591 0.304890
vt 0.988591 0.315823
vt 0.986458 0.326547
vt 0.982274 0.336649
vt 0.976199 0.345740
vt 0.968468 0.353471
vt 0.959377 0.359546
s 0
f 1/1/1 2/2/1 4/3/1 3/4/1
f 3/4/2 4/3/2 6/5/2 5/6/2
f 5/6/3 6/5/3 8/7/3 7/8/3
f 7/8/4 8/7/4 10/9/4 9/10/4
f 9/11/5 10/12/5 12/13/5 11/14/5
f 11/14/6 12/13/6 14/15/6 13/16/6
f 13/16/7 14/15/7 16/17/7 15/18/7
f 15/18/8 16/17/8 18/19/8 17/20/8
f 17/20/9 18/19/9 20/21/9 19/22/9
f 19/22/10 20/21/10 22/23/10 21/24/10
f 21/24/11 22/23/11 24/25/11 23/26/11
f 23/27/12 24/28/12 26/29/12 25/30/12
f 25/30/13 26/29/13 28/31/13 27/32/13
f 27/32/14 28/31/14 30/33/14 29/34/14
f 29/34/15 30/33/15 32/35/15 31/36/15
f 31/36/16 32/35/16 34/37/16 33/38/16
f 33/38/17 34/37/17 36/39/17 35/40/17
f 35/40/18 36/39/18 38/41/18 37/42/18
f 37/42/19 38/41/19 40/43/19 39/44/19
f 39/44/20 40/43/20 42/45/20 41/46/20
f 41/47/21 42/48/21 44/49/21 43/50/21
f 43/50/22 44/49/22 46/51/22 45/52/22
f 45/52/23 46/51/23 48/53/23 47/54/23
f 47/54/24 48/53/24 50/55/24 49/56/24
f 49/56/25 50/55/25 52/57/25 51/58/25
f 51/58/26 52/57/26 54/59/26 53/60/26
f 53/60/27 54/59/27 56/61/27 55/62/27
f 55/63/28 56/64/28 58/65/28 57/66/28
f 57/66/29 58/65/29 60/67/29 59/68/29
f 59/68/30 60/67/30 62/69/30 61/70/30
f 4/71/31 2/72/31 64/73/31 62/74/31 60/75/31 58/76/31 56/77/31 54/78/31 52/79/31 50/80/31 48/81/31 46/82/31 44/83/31 42/84/31 40/85/31 38/86/31 36/87/31 34/88/31 32/89/31 30/90/31 28/91/31 26/92/31 24/93/31 22/94/31 20/95/31 18/96/31 16/97/31 14/98/31 12/99/31 10/100/31 8/101/31 6/102/31
f 61/70/32 62/69/32 64/103/32 63/104/32
f 63/104/33 64/103/33 2/2/33 1/1/33
f 1/105/34 3/106/34 5/107/34 7/108/34 9/109/34 11/110/34 13/111/34 15/112/34 17/113/34 19/114/34 21/115/34 23/116/34 25/117/34 27/118/34 29/119/34 31/120/34 33/121/34 35/122/34 37/123/34 39/124/34 41/125/34 43/126/34 45/127/34 47/128/34 49/129/34 51/130/34 53/131/34 55/132/34 57/133/34 59/134/34 61/135/34 63/136/34
o Cube
v 0.128352 -0.291506 0.480480
v 0.128352 0.347734 0.480480
v 0.128352 -0.291506 0.502122
v 0.128352 0.347734 0.502122
v -0.071648 -0.291506 0.480480
v -0.071648 0.347734 0.480480
v -0.071648 -0.291506 0.502122
v -0.071648 0.347734 0.502122
vn 1.0000 -0.0000 -0.0000
vn -0.0000 -0.0000 1.0000
vn -1.0000 -0.0000 -0.0000
vn -0.0000 -0.0000 -1.0000
vn -0.0000 -1.0000 -0.0000
vn -0.0000 1.0000 -0.0000
vt 0.535759 0.819363
vt 0.535759 0.462824
vt 0.547830 0.462824
vt 0.547830 0.819363
vt 0.494319 0.821316
vt 0.494319 0.464777
vt 0.605870 0.464777
vt 0.605870 0.821316
vt 0.549783 0.821316
vt 0.549783 0.464777
vt 0.561854 0.464777
vt 0.561854 0.821316
vt 0.609776 0.821316
vt 0.609776 0.464777
vt 0.721327 0.464777
vt 0.721327 0.821316
vt 0.600726 0.486930
vt 0.600726 0.598481
vt 0.588655 0.598481
vt 0.588655 0.486930
vt 0.599315 0.492546
vt 0.599315 0.604097
vt 0.587244 0.604097
vt 0.587244 0.492546
s 0
f 65/137/35 66/138/35 68/139/35 67/140/35
f 67/141/36 68/142/36 72/143/36 71/144/36
f 71/145/37 72/146/37 70/147/37 69/148/37
f 69/149/38 70/150/38 66/151/38 65/152/38
f 67/153/39 71/154/39 69/155/39 65/156/39
f 72/157/40 68/158/40 66/159/40 70/160/40
o Cube.001
v 0.048490 -0.025300 0.171681
v 0.048490 0.014976 0.171681
v 0.048490 -0.017314 0.480825
v 0.048490 0.022962 0.480825
v 0.010876 -0.025300 0.171681
v 0.010876 0.014976 0.171681
v 0.010876 -0.017314 0.480825
v 0.010876 0.022962 0.480825
vn 1.0000 -0.0000 -0.0000
vn -0.0000 -0.0000 1.0000
vn -1.0000 -0.0000 -0.0000
vn -0.0000 -0.0000 -1.0000
vn -0.0000 -0.9997 0.0258
vn -0.0000 0.9997 -0.0258
vt 0.680014 0.816765
vt 0.657557 0.816185
vt 0.657557 0.643701
vt 0.680014 0.644281
vt 0.508165 0.802765
vt 0.508165 0.780300
vt 0.529144 0.780300
vt 0.529144 0.802765
vt 0.657557 0.471216
vt 0.680014 0.470636
vt 0.680014 0.643120
vt 0.503754 0.769562
vt 0.503754 0.747097
vt 0.524733 0.747097
vt 0.524733 0.769562
vt 0.700993 0.470636
vt 0.700993 0.643120
vt 0.680014 0.643120
vt 0.680014 0.643121
vt 0.700993 0.643121
vt 0.700993 0.815605
vt 0.680014 0.815605
s 0
f 73/161/41 74/162/41 76/163/41 75/164/41
f 75/165/42 76/166/42 80/167/42 79/168/42
f 79/169/43 80/170/43 78/171/43 77/163/43
f 77/172/44 78/173/44 74/174/44 73/175/44
f 75/170/45 79/176/45 77/177/45 73/178/45
f 80/179/46 76/180/46 74/181/46 78/182/46
o Cylinder.001
v 0.029587 -0.050500 0.224281
v 0.029587 0.036507 0.174989
v 0.017882 -0.051069 0.223278
v 0.017882 0.035939 0.173986
v 0.006626 -0.052752 0.220308
v 0.006626 0.034256 0.171015
v -0.003747 -0.055485 0.215483
v -0.003747 0.031522 0.166191
v -0.012839 -0.059163 0.208991
v -0.012839 0.027844 0.159698
v -0.020301 -0.063645 0.201080
v -0.020301 0.023363 0.151788
v -0.025846 -0.068758 0.192055
v -0.025846 0.018249 0.142762
v -0.029260 -0.074306 0.182262
v -0.029260 0.012701 0.132969
v -0.030413 -0.080076 0.172077
v -0.030413 0.006931 0.122785
v -0.029260 -0.085846 0.161893
v -0.029260 0.001161 0.112600
v -0.025846 -0.091394 0.152100
v -0.025846 -0.004387 0.102807
v -0.020301 -0.096507 0.143074
v -0.020301 -0.009500 0.093781
v -0.012839 -0.100989 0.135163
v -0.012839 -0.013982 0.085871
v -0.003747 -0.104667 0.128671
v -0.003747 -0.017660 0.079378
v 0.006626 -0.107400 0.123847
v 0.006626 -0.020393 0.074554
v 0.017882 -0.109083 0.120876
v 0.017882 -0.022076 0.071583
v 0.029587 -0.109651 0.119873
v 0.029587 -0.022644 0.070580
v 0.041293 -0.109083 0.120876
v 0.041292 -0.022076 0.071583
v 0.052548 -0.107400 0.123847
v 0.052548 -0.020393 0.074554
v 0.062921 -0.104667 0.128671
v 0.062921 -0.017660 0.079378
v 0.072013 -0.100989 0.135163
v 0.072013 -0.013982 0.085871
v 0.079475 -0.096507 0.143074
v 0.079475 -0.009500 0.093781
v 0.085020 -0.091394 0.152100
v 0.085020 -0.004387 0.102807
v 0.088434 -0.085846 0.161893
v 0.088434 0.001161 0.112600
v 0.089587 -0.080076 0.172077
v 0.089587 0.006931 0.122784
v 0.088434 -0.074306 0.182262
v 0.088434 0.012701 0.132969
v 0.085020 -0.068758 0.192055
v 0.085020 0.018249 0.142762
v 0.079475 -0.063645 0.201080
v 0.079475 0.023363 0.151788
v 0.072014 -0.059163 0.208991
v 0.072014 0.027844 0.159698
v 0.062921 -0.055485 0.215483
v 0.062921 0.031522 0.166191
v 0.052548 -0.052752 0.220308
v 0.052548 0.034256 0.171015
v 0.041293 -0.051069 0.223278
v 0.041293 0.035939 0.173986
vn -0.0980 0.4906 0.8659
vn -0.2903 0.4717 0.8326
vn -0.4714 0.4347 0.7673
vn -0.6344 0.3810 0.6726
vn -0.7730 0.3127 0.5520
vn -0.8819 0.2324 0.4101
vn -0.9569 0.1431 0.2526
vn -0.9952 0.0483 0.0853
vn -0.9952 -0.0483 -0.0853
vn -0.9569 -0.1431 -0.2526
vn -0.8819 -0.2324 -0.4101
vn -0.7730 -0.3127 -0.5520
vn -0.6344 -0.3810 -0.6726
vn -0.4714 -0.4347 -0.7673
vn -0.2903 -0.4717 -0.8326
vn -0.0980 -0.4906 -0.8659
vn 0.0980 -0.4906 -0.8659
vn 0.2903 -0.4717 -0.8326
vn 0.4714 -0.4347 -0.7673
vn 0.6344 -0.3810 -0.6726
vn 0.7730 -0.3127 -0.5520
vn 0.8819 -0.2324 -0.4101
vn 0.9569 -0.1431 -0.2526
vn 0.9952 -0.0483 -0.0853
vn 0.9952 0.0483 0.0853
vn 0.9569 0.1431 0.2526
vn 0.8819 0.2324 0.4101
vn 0.7730 0.3127 0.5520
vn 0.6344 0.3810 0.6726
vn 0.4714 0.4347 0.7673
vn -0.0000 0.8701 -0.4929
vn 0.2903 0.4717 0.8326
vn 0.0980 0.4906 0.8659
vn -0.0000 -0.8701 0.4929
vt 0.591942 0.812879
vt 0.591942 0.701328
vt 0.602666 0.701328
vt 0.602666 0.812879
vt 0.612767 0.701328
vt 0.612767 0.812879
vt 0.621858 0.701328
vt 0.621858 0.812879
vt 0.629590 0.701328
vt 0.629590 0.812879
vt 0.633122 0.697421
vt 0.633122 0.585871
vt 0.640854 0.585871
vt 0.640854 0.697421
vt 0.649945 0.585871
vt 0.649945 0.697421
vt 0.660047 0.585871
vt 0.660047 0.697421
vt 0.670771 0.585871
vt 0.670771 0.697421
vt 0.681704 0.585871
vt 0.681704 0.697421
vt 0.692428 0.585871
vt 0.692428 0.697421
vt 0.702530 0.585871
vt 0.702530 0.697421
vt 0.711621 0.585871
vt 0.711621 0.697421
vt 0.719352 0.585871
vt 0.719352 0.697421
vt 0.640935 0.578727
vt 0.640935 0.467176
vt 0.650026 0.467176
vt 0.650026 0.578727
vt 0.660128 0.467176
vt 0.660128 0.578727
vt 0.670852 0.467176
vt 0.670852 0.578727
vt 0.681786 0.467176
vt 0.681786 0.578727
vt 0.692509 0.467176
vt 0.692509 0.578727
vt 0.702611 0.467176
vt 0.702611 0.578727
vt 0.711702 0.467176
vt 0.711702 0.578727
vt 0.719434 0.467176
vt 0.719434 0.578727
vt 0.642888 0.819184
vt 0.642888 0.707633
vt 0.651979 0.707633
vt 0.651979 0.819184
vt 0.662081 0.707633
vt 0.662081 0.819184
vt 0.672805 0.707633
vt 0.672805 0.819184
vt 0.683739 0.707633
vt 0.683739 0.819184
vt 0.694462 0.707633
vt 0.694462 0.819184
vt 0.704564 0.707633
vt 0.704564 0.819184
vt 0.713655 0.707633
vt 0.713655 0.819184
vt 0.551091 0.812879
vt 0.551091 0.701328
vt 0.560182 0.701328
vt 0.560182 0.812879
vt 0.570284 0.701328
vt 0.570284 0.812879
vt 0.555904 0.600194
vt 0.548172 0.592462
vt 0.542098 0.583371
vt 0.537914 0.573269
vt 0.535780 0.562546
vt 0.535780 0.551612
vt 0.537914 0.540888
vt 0.542098 0.530786
vt 0.548172 0.521695
vt 0.555904 0.513964
vt 0.564995 0.507889
vt 0.575097 0.503705
vt 0.585820 0.501572
vt 0.596754 0.501572
vt 0.607478 0.503705
vt 0.617580 0.507889
vt 0.626671 0.513964
vt 0.634402 0.521695
vt 0.640477 0.530786
vt 0.644661 0.540888
vt 0.646794 0.551612
vt 0.646794 0.562546
vt 0.644661 0.573269
vt 0.640477 0.583371
vt 0.634402 0.592462
vt 0.626671 0.600194
vt 0.617580 0.606268
vt 0.607478 0.610453
vt 0.596754 0.612586
vt 0.585820 0.612586
vt 0.575097 0.610453
vt 0.564995 0.606268
vt 0.581008 0.701328
vt 0.581008 0.812879
vt 0.546219 0.596054
vt 0.540145 0.586963
vt 0.535960 0.576862
vt 0.533827 0.566138
vt 0.533827 0.555204
vt 0.535960 0.544480
vt 0.540145 0.534378
vt 0.546219 0.525287
vt 0.553951 0.517556
vt 0.563042 0.511481
vt 0.573144 0.507297
vt 0.583867 0.505164
vt 0.594801 0.505164
vt 0.605525 0.507297
vt 0.615627 0.511481
vt 0.624718 0.517556
vt 0.632449 0.525287
vt 0.638524 0.534378
vt 0.642708 0.544480
vt 0.644841 0.555204
vt 0.644841 0.566138
vt 0.642708 0.576862
vt 0.638524 0.586963
vt 0.632449 0.596054
vt 0.624718 0.603786
vt 0.615627 0.609860
vt 0.605525 0.614045
vt 0.594801 0.616178
vt 0.583867 0.616178
vt 0.573144 0.614045
vt 0.563042 0.609860
vt 0.553951 0.603786
s 0
f 81/183/47 82/184/47 84/185/47 83/186/47
f 83/186/48 84/185/48 86/187/48 85/188/48
f 85/188/49 86/187/49 88/189/49 87/190/49
f 87/190/50 88/189/50 90/191/50 89/192/50
f 89/193/51 90/194/51 92/195/51 91/196/51
f 91/196/52 92/195/52 94/197/52 93/198/52
f 93/198/53 94/197/53 96/199/53 95/200/53
f 95/200/54 96/199/54 98/201/54 97/202/54
f 97/202/55 98/201/55 100/203/55 99/204/55
f 99/204/56 100/203/56 102/205/56 101/206/56
f 101/206/57 102/205/57 104/207/57 103/208/57
f 103/208/58 104/207/58 106/209/58 105/210/58
f 105/210/59 106/209/59 108/211/59 107/212/59
f 107/213/60 108/214/60 110/215/60 109/216/60
f 109/216/61 110/215/61 112/217/61 111/218/61
f 111/218/62 112/217/62 114/219/62 113/220/62
f 113/220/63 114/219/63 116/221/63 115/222/63
f 115/222/64 116/221/64 118/223/64 117/224/64
f 117/224/65 118/223/65 120/225/65 119/226/65
f 119/226/66 120/225/66 122/227/66 121/228/66
f 121/228/67 122/227/67 124/229/67 123/230/67
f 123/231/68 124/232/68 126/233/68 125/234/68
f 125/234/69 126/233/69 128/235/69 127/236/69
f 127/236/70 128/235/70 130/237/70 129/238/70
f 129/238/71 130/237/71 132/239/71 131/240/71
f 131/240/72 132/239/72 134/241/72 133/242/72
f 133/242/73 134/241/73 136/243/73 135/244/73
f 135/244/74 136/243/74 138/245/74 137/246/74
f 137/247/75 138/248/75 140/249/75 139/250/75
f 139/250/76 140/249/76 142/251/76 141/252/76
f 84/253/77 82/254/77 144/255/77 142/256/77 140/257/77 138/258/77 136/259/77 134/260/77 132/261/77 130/262/77 128/263/77 126/264/77 124/265/77 122/266/77 120/267/77 118/268/77 116/269/77 114/270/77 112/271/77 110/272/77 108/273/77 106/274/77 104/275/77 102/276/77 100/277/77 98/278/77 96/279/77 94/280/77 92/281/77 90/282/77 88/283/77 86/284/77
f 141/252/78 142/251/78 144/285/78 143/286/78
f 143/286/79 144/285/79 82/184/79 81/183/79
f 81/287/80 83/288/80 85/289/80 87/290/80 89/291/80 91/292/80 93/293/80 95/294/80 97/295/80 99/296/80 101/297/80 103/298/80 105/299/80 107/300/80 109/301/80 111/302/80 113/303/80 115/304/80 117/305/80 119/306/80 121/307/80 123/308/80 125/309/80 127/310/80 129/311/80 131/312/80 133/313/80 135/314/80 137/315/80 139/316/80 141/317/80 143/318/80
